<svg width="97" height="96" viewBox="0 0 97 96" fill="none" xmlns="http://www.w3.org/2000/svg">
<circle cx="48.5" cy="48" r="48" fill="#91BB57"/>
<path d="M62.1009 51.0771H46.7604L47.2304 50.6252L51.2425 46.7676C52.863 47.5522 54.6485 47.9706 56.4627 47.9906C58.2888 47.9953 60.0808 47.5148 61.6409 46.6022C66.385 43.8407 68.9271 37.4485 68.4411 29.5024C68.4182 29.126 68.2524 28.7708 67.9751 28.5043C67.6979 28.2377 67.3285 28.0783 66.937 28.0563C58.6728 27.5909 52.0245 30.0332 49.1525 34.5946C47.2804 37.5658 47.2324 41.1542 48.9785 44.5945L46.1004 47.3618L43.6583 45.0137C44.8583 42.4657 44.7723 39.8215 43.3803 37.6138C41.2062 34.1543 36.2221 32.3101 30.0459 32.6581C29.6551 32.6805 29.2864 32.8399 29.0096 33.106C28.7328 33.3722 28.5671 33.7266 28.5438 34.1023C28.1798 40.0388 30.0999 44.8311 33.7 46.9233C34.9044 47.6304 36.2889 48.0032 37.7001 48.0002C38.9804 47.988 40.2432 47.7133 41.4042 47.1945L43.8363 49.5387L42.2362 51.0771H33.3C32.8756 51.0771 32.4686 51.2392 32.1686 51.5277C31.8685 51.8162 31.6999 52.2075 31.6999 52.6156C31.6999 53.0236 31.8685 53.4149 32.1686 53.7034C32.4686 53.9919 32.8756 54.154 33.3 54.154H35.218L37.8601 65.5904C38.015 66.2753 38.4098 66.8884 38.9784 67.327C39.5471 67.7656 40.2552 68.0032 40.9842 68H54.4186C55.1476 68.0032 55.8557 67.7656 56.4244 67.327C56.9931 66.8884 57.3879 66.2753 57.5427 65.5904L60.1848 54.154H62.1009C62.5252 54.154 62.9322 53.9919 63.2323 53.7034C63.5323 53.4149 63.7009 53.0236 63.7009 52.6156C63.7009 52.2075 63.5323 51.8162 63.2323 51.5277C62.9322 51.2392 62.5252 51.0771 62.1009 51.0771ZM51.9005 36.1889C53.9926 32.8697 58.9488 30.9966 65.301 31.0793C65.383 37.1965 63.4389 41.9599 59.9868 43.9638C57.6847 45.3099 54.9066 45.2214 52.1306 43.7368C50.5845 41.0773 50.5005 38.4023 51.9005 36.1889ZM40.5222 44.1753C38.6821 45.1234 36.8601 45.1676 35.356 44.2907C33.056 42.9503 31.7299 39.7907 31.6999 35.6927C35.9621 35.7216 39.2502 36.9965 40.6422 39.208C41.5542 40.6542 41.5002 42.4061 40.5222 44.1753ZM54.4186 64.9231H40.9842L38.5001 54.154H56.9007L54.4186 64.9231Z" fill="#1E1E1E"/>
</svg>
