<svg width="97" height="96" viewBox="0 0 97 96" fill="none" xmlns="http://www.w3.org/2000/svg">
<circle cx="48.5" cy="48" r="48" fill="#91BB57"/>
<path d="M48.965 30.5906C48.6665 30.471 48.3335 30.471 48.035 30.5906L33.115 36.5581L39.125 38.9606L54.51 32.8081L48.965 30.5906ZM57.875 34.1556L42.49 40.3081L48.5 42.7106L63.885 36.5581L57.875 34.1556ZM66 38.4056L49.75 44.9056V64.7106L66 58.2106V38.4056ZM47.25 64.7131V44.9031L31 38.4056V58.2131L47.25 64.7131ZM47.1075 28.2681C48.0014 27.9106 48.9986 27.9106 49.8925 28.2681L67.715 35.3981C67.9467 35.491 68.1453 35.6511 68.2852 35.8579C68.4251 36.0646 68.4999 36.3085 68.5 36.5581V58.2131C68.4997 58.7127 68.3497 59.2007 68.0694 59.6142C67.7891 60.0277 67.3914 60.3478 66.9275 60.5331L48.965 67.7181C48.6665 67.8377 48.3335 67.8377 48.035 67.7181L30.075 60.5331C29.6106 60.3482 29.2124 60.0283 28.9316 59.6147C28.6509 59.2012 28.5005 58.713 28.5 58.2131V36.5581C28.5001 36.3085 28.5749 36.0646 28.7148 35.8579C28.8547 35.6511 29.0533 35.491 29.285 35.3981L47.1075 28.2681Z" fill="#1E1E1E"/>
</svg>
