<svg width="97" height="96" viewBox="0 0 97 96" fill="none" xmlns="http://www.w3.org/2000/svg">
<circle cx="48.5" cy="48" r="48" fill="#91BB57"/>
<g clip-path="url(#clip0_13_958)">
<path d="M37.6347 31.3199C37.4871 31.13 37.3008 30.9738 37.0882 30.8614C36.8756 30.7491 36.6415 30.6833 36.4015 30.6684C36.1615 30.6535 35.9211 30.6899 35.6962 30.775C35.4713 30.8602 35.2671 30.9922 35.0972 31.1624L32.5122 33.7499C31.3047 34.9599 30.8597 36.6724 31.3872 38.1749C33.5766 44.3939 37.1379 50.0401 41.8072 54.6949C46.462 59.3641 52.1083 62.9255 58.3272 65.1149C59.8297 65.6424 61.5422 65.1974 62.7522 63.9899L65.3372 61.4049C65.5074 61.235 65.6394 61.0308 65.7246 60.8059C65.8097 60.581 65.8461 60.3406 65.8312 60.1006C65.8163 59.8606 65.7505 59.6265 65.6382 59.4139C65.5258 59.2013 65.3696 59.015 65.1797 58.8674L59.4122 54.3824C59.2094 54.2251 58.9735 54.1159 58.7223 54.063C58.4711 54.0102 58.2112 54.0151 57.9622 54.0774L52.4872 55.4449C51.7564 55.6275 50.9908 55.6178 50.2648 55.4168C49.5389 55.2157 48.8774 54.83 48.3447 54.2974L42.2047 48.1549C41.6716 47.6225 41.2855 46.9611 41.084 46.2351C40.8825 45.5092 40.8724 44.7434 41.0547 44.0124L42.4247 38.5374C42.487 38.2884 42.4919 38.0285 42.439 37.7773C42.3862 37.5261 42.277 37.2902 42.1197 37.0874L37.6347 31.3199ZM33.2097 29.2774C33.6472 28.8398 34.1728 28.5002 34.7516 28.2813C35.3303 28.0624 35.9491 27.9691 36.5667 28.0076C37.1843 28.0462 37.7866 28.2156 38.3337 28.5048C38.8807 28.794 39.36 29.1963 39.7397 29.6849L44.2247 35.4499C45.0472 36.5074 45.3372 37.8849 45.0122 39.1849L43.6447 44.6599C43.574 44.9435 43.5778 45.2405 43.6558 45.5222C43.7338 45.8038 43.8832 46.0605 44.0897 46.2674L50.2322 52.4099C50.4393 52.6168 50.6964 52.7665 50.9786 52.8445C51.2607 52.9225 51.5583 52.926 51.8422 52.8549L57.3147 51.4874C57.9562 51.327 58.6259 51.3145 59.2729 51.4509C59.92 51.5874 60.5276 51.8691 61.0497 52.2749L66.8147 56.7599C68.8872 58.3724 69.0772 61.4349 67.2222 63.2874L64.6372 65.8724C62.7872 67.7224 60.0222 68.5349 57.4447 67.6274C50.8477 65.3062 44.8579 61.5295 39.9197 56.5774C34.9679 51.6399 31.1912 45.651 28.8697 39.0549C27.9647 36.4799 28.7772 33.7124 30.6272 31.8624L33.2122 29.2774H33.2097ZM55.9997 29.2499C55.9997 28.9184 56.1314 28.6004 56.3658 28.366C56.6002 28.1316 56.9182 27.9999 57.2497 27.9999H67.2497C67.5812 27.9999 67.8992 28.1316 68.1336 28.366C68.368 28.6004 68.4997 28.9184 68.4997 29.2499V39.2499C68.4997 39.5814 68.368 39.8993 68.1336 40.1338C67.8992 40.3682 67.5812 40.4999 67.2497 40.4999C66.9182 40.4999 66.6002 40.3682 66.3658 40.1338C66.1314 39.8993 65.9997 39.5814 65.9997 39.2499V32.2674L55.6347 42.6349C55.4 42.8696 55.0817 43.0015 54.7497 43.0015C54.4178 43.0015 54.0994 42.8696 53.8647 42.6349C53.63 42.4002 53.4981 42.0818 53.4981 41.7499C53.4981 41.4179 53.63 41.0996 53.8647 40.8649L64.2322 30.4999H57.2497C56.9182 30.4999 56.6002 30.3682 56.3658 30.1338C56.1314 29.8993 55.9997 29.5814 55.9997 29.2499Z" fill="#1E1E1E"/>
</g>
<defs>
<clipPath id="clip0_13_958">
<rect width="40" height="40" fill="white" transform="translate(28.5 28)"/>
</clipPath>
</defs>
</svg>
