<svg width="1122" height="88" viewBox="0 0 1122 88" fill="none" xmlns="http://www.w3.org/2000/svg">
<line y1="43.0811" x2="1122" y2="43.0811" stroke="url(#paint0_linear_33_1542)" stroke-width="2"/>
<g filter="url(#filter0_b_33_1542)">
<rect x="517" width="88" height="88" rx="44" fill="white" fill-opacity="0.1"/>
<rect x="517.5" y="0.5" width="87" height="87" rx="43.5" stroke="white"/>
<path d="M561 33.61C558.907 36.1621 557.816 39.3366 557.903 42.6872L557.925 43.4988L556.38 43.1369L555.253 41.956C555.294 40.0284 555.67 38.1443 556.371 36.3444C557.714 32.9026 559.666 31.0993 561 29.7661L561.529 31.9093L561 33.61Z" fill="white"/>
<path d="M557.073 34.7837C556.827 35.2638 556.591 35.7818 556.371 36.3443C555.761 37.9091 555.398 39.5376 555.286 41.203C556.451 41.4361 557.359 41.7788 557.902 42.0171C557.949 39.7407 558.544 37.5608 559.628 35.6207C558.667 35.1003 557.751 34.8768 557.073 34.7837Z" fill="white"/>
<path d="M550.898 51.106C554.222 51.6486 557.541 50.9442 560.307 49.2489L561 48.8247L561.529 50.5621L561 51.9095C558.578 53.2372 555.868 53.9354 553.111 53.9355C550.683 53.9356 549.081 53.4343 547.569 53.029L549.133 51.5959L550.898 51.106Z" fill="white"/>
<path d="M553.738 51.2709C554.376 52.1672 554.706 53.1064 554.878 53.8393C557.018 53.6062 559.098 52.952 560.999 51.9094L561.034 51.8216C560.833 50.7584 560.438 49.9227 560.107 49.3687C558.181 50.5052 555.998 51.1673 553.738 51.2709Z" fill="white"/>
<path d="M571.101 51.1059C569.937 48.0171 567.733 45.4848 564.788 43.8862L564.074 43.4989L565.372 42.2198L566.746 41.9561C568.395 42.9557 569.839 44.2229 571.047 45.731C573.357 48.6141 573.941 51.2044 574.43 53.0289L572.831 52.635L571.101 51.1059Z" fill="white"/>
<path d="M565.621 44.3761C567.508 45.5728 569.044 47.1772 570.139 49.0734C571.034 48.4691 571.661 47.7654 572.081 47.1703C571.78 46.7004 571.439 46.2199 571.047 45.7309C569.99 44.4101 568.75 43.2741 567.351 42.3408C566.727 43.246 566.092 43.9274 565.621 44.3761Z" fill="white"/>
<path d="M553.733 62.6378C551.237 62.6378 548.742 61.099 546.925 59.359C536.825 49.2594 540.378 32.1629 553.51 26.8377C566.558 21.5467 580.904 31.1332 580.904 45.2845C580.904 55.3227 573.543 62.6378 568.267 62.6378C564.016 62.6378 561.512 58.2686 562.441 53.8607C564.098 45.9969 568.901 46.1163 571.374 39.3326C566.441 38.3358 563.746 39.7849 561 41.4678C558.257 39.7872 555.576 38.332 550.625 39.3326C553.095 46.1088 557.904 46.008 559.558 53.8607C560.489 58.276 557.978 62.6375 553.733 62.6378ZM548.778 57.4654C554.8 62.9735 557.784 58.2904 556.966 54.407C555.422 47.0786 550.239 47.7259 547.648 38.7413L547.274 37.4441C551.089 36.4219 555.433 35.2513 561 38.3779C563.45 37.0018 565.805 36.3569 568.352 36.3569C570.903 36.3569 572.986 36.9781 574.725 37.4441L574.351 38.7413C571.76 47.7245 566.578 47.0771 565.033 54.407C564.217 58.2819 567.184 62.9871 573.221 57.4654C579.929 50.7361 579.922 39.8046 573.201 33.0834C566.457 26.34 555.542 26.3395 548.798 33.0834C542.077 39.8046 542.07 50.7362 548.778 57.4654Z" fill="white"/>
<path d="M564.902 55.5327C564.912 55.1564 564.955 54.7779 565.033 54.4071C565.523 52.0845 566.378 50.5629 567.399 49.282C566.266 49.0809 565.329 48.7625 564.668 48.489C563.738 49.8216 562.944 51.4727 562.441 53.8608C562.386 54.123 562.343 54.3851 562.312 54.6461C563.296 55.2004 564.234 55.435 564.902 55.5327Z" fill="white"/>
<path d="M549.935 43.8798C551.371 46.0683 552.987 47.3574 554.349 48.9759C555.023 48.1283 555.696 47.4939 556.205 47.0691C554.799 45.4741 553.244 44.1831 551.949 42.0876C551.025 42.6506 550.37 43.3237 549.935 43.8798Z" fill="white"/>
<path d="M568.343 39.0065C568.245 38.0002 567.956 37.0562 567.695 36.3718C565.484 36.4704 563.402 37.0726 561.254 38.2376C561.756 39.343 561.917 40.2605 561.954 40.897C563.773 39.8447 565.686 39.0045 568.343 39.0065Z" fill="white"/>
<path d="M547.569 53.0289C548.018 51.3519 548.593 48.6761 550.952 45.731C552.16 44.2229 553.604 42.9557 555.253 41.9561L557.925 43.4989L557.211 43.8862C554.266 45.4848 552.062 48.0171 550.898 51.106L547.569 53.0289Z" fill="white"/>
<path d="M574.43 53.029L573.151 53.3718C568.999 54.4845 564.674 53.9246 561 51.9095V48.8247L561.692 49.2489C564.457 50.9434 567.775 51.6488 571.101 51.106L574.43 53.029Z" fill="white"/>
<path d="M564.074 43.4988L564.096 42.6872C564.183 39.3365 563.092 36.162 561 33.61V29.7661L561.936 30.7028C565.05 33.8168 566.658 37.8759 566.746 41.956L564.074 43.4988Z" fill="white"/>
</g>
<defs>
<filter id="filter0_b_33_1542" x="507" y="-10" width="108" height="108" filterUnits="userSpaceOnUse" color-interpolation-filters="sRGB">
<feFlood flood-opacity="0" result="BackgroundImageFix"/>
<feGaussianBlur in="BackgroundImageFix" stdDeviation="5"/>
<feComposite in2="SourceAlpha" operator="in" result="effect1_backgroundBlur_33_1542"/>
<feBlend mode="normal" in="SourceGraphic" in2="effect1_backgroundBlur_33_1542" result="shape"/>
</filter>
<linearGradient id="paint0_linear_33_1542" x1="5" y1="44.0067" x2="1122" y2="44.0878" gradientUnits="userSpaceOnUse">
<stop stop-opacity="0"/>
<stop offset="0.244792" stop-color="#CCCCCC"/>
<stop offset="0.760417" stop-color="#CCCCCC"/>
<stop offset="1" stop-opacity="0"/>
</linearGradient>
</defs>
</svg>
